P2
2 2 
255
255  155  155 255 
